# xmcd
#
# Track frame offsets: 
#        150
#        30641
#        51672
#        77041
#        101281
#        129220
#        151935
#        175370
#        201954
#        225373
#
# Disc length: 3246 seconds
#
# Revision: 0
# Processed by: cddbd v1.5.2PL0 Copyright (c) Steve Scherf et al.
# Submitted via: ExactAudioCopy v1.0b3
#
DISCID=760cac0a
DTITLE=Various Artist - Thuong Ca Mua Ha 4
DYEAR=2011
DGENRE=
TTITLE0=Tam Doan, Duy Truong, Tuong Nguyen - LK Thuong ca mua ha 1
TTITLE1=Nhu Quynh - Hoa tim doi cho
TTITLE2=Manh Dinh - Mua phuong tim
TTITLE3=Tam Doan - Mua ve sau
TTITLE4=Tuan Vu - Du am mua ha
TTITLE5=Nhu Quynh, Tuong Nguyen, Tuong Khue - LK Thuong ca mua ha 2
TTITLE6=Thanh Tuyen - Con do que huong
TTITLE7=Truong Vu - Tuong tu ao trang
TTITLE8=Tam Doan - Trang nhat ky
TTITLE9=Mai Quoc Huy - Chieu ha vang
EXTD=
EXTT0=
EXTT1=
EXTT2=
EXTT3=
EXTT4=
EXTT5=
EXTT6=
EXTT7=
EXTT8=
EXTT9=
PLAYORDER=
